<?xml version="1.0" encoding="UTF-8"?>
<svg width="24px" height="24px" viewBox="0 0 24 24" version="1.1" xmlns="http://www.w3.org/2000/svg" xmlns:xlink="http://www.w3.org/1999/xlink">
    <!-- Generator: Sketch 53.2 (72643) - https://sketchapp.com -->
    <title>Default state</title>
    <desc>Created with Sketch.</desc>
    <g id="Default-state" stroke="none" stroke-width="1" fill="none" fill-rule="evenodd">
        <g id="Group-Copy-6" fill-rule="nonzero">
            <circle id="Oval-3" fill="#005EA5" cx="12" cy="12" r="12"></circle>
            <path d="M10.71875,14.2109375 L10.71875,13.7265625 C10.71875,13.3776024 10.7721349,13.0625014 10.8789062,12.78125 C10.9856776,12.4999986 11.1184888,12.2434907 11.2773438,12.0117188 C11.4361987,11.7799468 11.608072,11.5664072 11.7929688,11.3710938 C11.9778655,11.1757803 12.1497388,10.9895842 12.3085938,10.8125 C12.4674487,10.6354158 12.6002599,10.4609384 12.7070312,10.2890625 C12.8138026,10.1171866 12.8671875,9.9348968 12.8671875,9.7421875 C12.8671875,9.59635344 12.8372399,9.46484434 12.7773438,9.34765625 C12.7174476,9.23046816 12.6367193,9.13020875 12.5351562,9.046875 C12.4335932,8.96354125 12.3138028,8.90104188 12.1757812,8.859375 C12.0377597,8.81770812 11.8880216,8.796875 11.7265625,8.796875 C11.4921863,8.796875 11.2747406,8.82682262 11.0742188,8.88671875 C10.8736969,8.94661488 10.6875009,9.02343703 10.515625,9.1171875 C10.3437491,9.21093797 10.1861986,9.31770773 10.0429688,9.4375 C9.89973887,9.55729227 9.77343805,9.67968688 9.6640625,9.8046875 L8.3828125,8.1953125 C8.58593852,7.97656141 8.81510289,7.77213637 9.0703125,7.58203125 C9.32552211,7.39192613 9.60416516,7.2265632 9.90625,7.0859375 C10.2083348,6.9453118 10.5312483,6.83593789 10.875,6.7578125 C11.2187517,6.67968711 11.5833314,6.640625 11.96875,6.640625 C12.4791692,6.640625 12.9453104,6.71744715 13.3671875,6.87109375 C13.7890646,7.02474035 14.1510402,7.2330716 14.453125,7.49609375 C14.7552098,7.7591159 14.9895825,8.06380035 15.15625,8.41015625 C15.3229175,8.75651215 15.40625,9.12239391 15.40625,9.5078125 C15.40625,9.78906391 15.3736982,10.0481759 15.3085938,10.2851562 C15.2434893,10.5221366 15.1484381,10.7473948 15.0234375,10.9609375 C14.8984369,11.1744802 14.7447926,11.3841136 14.5625,11.5898438 C14.3802074,11.7955739 14.1718762,12.0078114 13.9375,12.2265625 C13.8020827,12.3515631 13.6731777,12.4765619 13.5507812,12.6015625 C13.4283848,12.7265631 13.321615,12.8606764 13.2304688,13.0039062 C13.1393225,13.1471361 13.0664065,13.3020825 13.0117188,13.46875 C12.957031,13.6354175 12.9296875,13.8229156 12.9296875,14.03125 L12.9296875,14.2109375 L10.71875,14.2109375 Z M10.3359375,16.671875 C10.3359375,16.468749 10.3763017,16.2760426 10.4570312,16.09375 C10.5377608,15.9114574 10.6458327,15.7526048 10.78125,15.6171875 C10.9166673,15.4817702 11.076822,15.3736983 11.2617188,15.2929688 C11.4466155,15.2122392 11.640624,15.171875 11.84375,15.171875 C12.046876,15.171875 12.2382804,15.2122392 12.4179688,15.2929688 C12.5976571,15.3736983 12.7552077,15.4817702 12.890625,15.6171875 C13.0260423,15.7526048 13.1328121,15.9114574 13.2109375,16.09375 C13.2890629,16.2760426 13.328125,16.468749 13.328125,16.671875 C13.328125,16.875001 13.2890629,17.0664054 13.2109375,17.2460938 C13.1328121,17.4257821 13.0260423,17.5833327 12.890625,17.71875 C12.7552077,17.8541673 12.5976571,17.9609371 12.4179688,18.0390625 C12.2382804,18.1171879 12.046876,18.15625 11.84375,18.15625 C11.640624,18.15625 11.4466155,18.1171879 11.2617188,18.0390625 C11.076822,17.9609371 10.9166673,17.8541673 10.78125,17.71875 C10.6458327,17.5833327 10.5377608,17.4257821 10.4570312,17.2460938 C10.3763017,17.0664054 10.3359375,16.875001 10.3359375,16.671875 Z" id="?" fill="#FFFFFF"></path>
        </g>
    </g>
</svg>